<svg xmlns="http://www.w3.org/2000/svg" xmlns:xlink="http://www.w3.org/1999/xlink"><defs><symbol viewBox="0 0 19.4 16.5" id="arrow"><g id="arrow_Group_14" transform="rotate(180 9.708 7.798)"><path class="st0" d="M11.2-.9l8.3 8.2-8.3 8.3-1.8-1.8 6.5-6.5L9.4.9z" id="arrow_Path_205"/><path class="st0" d="M0 6.2h17.6v2.5H0z" id="arrow_Line_5"/></g></symbol><symbol viewBox="0 0 25 9" id="arrow-thick"><path class="st0" d="M0 3h20v3H0z"/><path class="st0" d="M25 4.5L17 9V0l8 4.5z"/></symbol><symbol viewBox="0 0 9 8" id="arrow-triangle"><path d="M4.5 8L0 0h9z" data-name="Polygon 12"/></symbol><symbol viewBox="0 0 10.828 6.828" id="carret-sharp"><path d="M0 4l4-4 4 4" transform="rotate(180 4.707 2.707)" fill="none" stroke-linecap="square" stroke-width="2"/></symbol><symbol viewBox="0 0 22.858 14.604" id="email"><path id="email_Path_528" data-name="Path 528" d="M268.526 528.564H248.28a1.306 1.306 0 00-1.306 1.306v11.992a1.306 1.306 0 001.306 1.306h20.246a1.306 1.306 0 001.306-1.306V529.87a1.306 1.306 0 00-1.306-1.306zM248.7 541.642l-.54-.431 4.4-5.518.54.431zm-.1-11.135l.414-.554 9.239 6.914 9.242-7.167.424.546-9.658 7.49zm18.955 11.135l-4.4-5.518.54-.431 4.4 5.518z" transform="translate(-246.974 -528.564)"/></symbol><symbol viewBox="0 0 452.95 339.52" id="emakina-logo"><path d="M92.23 201.88h-5.87v-29.33h5.87zm-11.73 0h-5.87v-29.33h5.87zm-11.72 0h-5.87v-29.33h5.87zm23.46-64.5v5.87H62.91v-5.87zm-.01 11.73v5.87H62.9v-5.87zm0 11.73v5.87H62.9v-5.87zm70.31-23.46h5.74l14.36 17.41 14.29-17.41h5.76v29.35h-6.66v-20.2l-13.11 16.65h-1.38l-13.26-16.16v19.71h-5.74zm43.79 29.35h7.15l3.67-6.45h19.41l3.67 6.45h8.04l-17.68-29.35h-6.86l-17.41 29.35zm13.87-11.8l6.59-12.21 6.87 12.21h-13.45zm31.79-17.55h7.22v11.85l17.14-11.85h10.32l-20.25 13.59 22.54 15.76h-11.3l-18.45-13.26v13.26h-7.22zm40.98 0h7.14v29.35h-7.14zm15.41 0h4.93l24.89 19.5v-19.5h6.46v29.35h-4.92l-24.85-19.78v19.78h-6.51zm39.7 29.35h7.15l3.67-6.45h19.43l3.67 6.45h8.05l-17.69-29.35h-6.87zm13.87-11.8l6.58-12.21 6.87 12.21zm-237.3-17.55v29.35h32.41v-5.49h-25.2v-7.22h20.94v-5.06h-20.94v-6.38h25.2v-5.2zm9.93 59.39h-6.45l-1.82 5.11h-1.66l5.88-16.02h1.69l5.88 16.02h-1.66l-1.85-5.11zm-3.23-9.26s-.34 1.32-.62 2.07l-2.14 5.81h5.52l-2.1-5.81c-.27-.75-.62-2.07-.62-2.07h-.05zm13.01-1.66h1.53l8.18 11.53c.55.8 1.32 2.17 1.32 2.17h.05s-.14-1.32-.14-2.17v-11.53h1.57v16.02h-1.53l-8.18-11.53c-.55-.8-1.32-2.17-1.32-2.17h-.05s.14 1.32.14 2.17v11.53h-1.57zm30.6 0h9.03v1.41h-7.45v5.84h6.09v1.41h-6.09v5.95h7.86v1.41h-9.44zm16.66 0h5.54c2.87 0 4.95 1.87 4.95 4.83s-2.07 4.9-4.95 4.9h-3.97v6.29h-1.57zm5.34 8.32c2.14 0 3.53-1.3 3.53-3.49s-1.39-3.42-3.51-3.42h-3.78v6.91zm19.21 2.6h-6.45l-1.82 5.11h-1.66l5.88-16.02h1.69l5.88 16.02h-1.66l-1.85-5.11zm-3.23-9.26s-.34 1.32-.62 2.07l-2.14 5.81h5.52l-2.1-5.81c-.27-.75-.62-2.07-.62-2.07h-.05zm13.79-1.66h1.64l4.19 9.41c.36.82.78 1.96.78 1.96h.05s.43-1.14.8-1.96l4.19-9.41H240l1.28 16.02h-1.57l-.89-11.21c-.07-.87-.05-2.23-.05-2.23h-.05s-.48 1.41-.84 2.23l-3.76 8.23h-1.48l-3.76-8.23c-.36-.8-.87-2.28-.87-2.28h-.05s.02 1.41-.05 2.28l-.89 11.21h-1.57zm39.09-.27c3.83 0 5.77 2.07 5.77 2.07l-.84 1.16s-1.87-1.78-4.88-1.78c-3.76 0-6.45 2.92-6.45 6.7s2.69 6.95 6.5 6.95c3.24 0 5.2-2.14 5.2-2.14l.91 1.12s-2.19 2.48-6.13 2.48c-4.74 0-8.11-3.71-8.11-8.39s3.46-8.18 8.05-8.18zm20.2 0c4.54 0 8.16 3.58 8.16 8.18s-3.62 8.39-8.16 8.39-8.16-3.69-8.16-8.39 3.63-8.18 8.16-8.18m0 15.11c3.6 0 6.52-3.01 6.52-6.93s-2.92-6.72-6.52-6.72-6.52 2.9-6.52 6.72 2.9 6.93 6.52 6.93m16.15-14.84h1.64l4.19 9.41c.36.82.77 1.96.77 1.96h.05s.43-1.14.8-1.96l4.19-9.41h1.62l1.28 16.02h-1.57l-.89-11.21c-.07-.87-.05-2.23-.05-2.23h-.05s-.48 1.41-.84 2.23l-3.76 8.23h-1.48l-3.76-8.23c-.36-.8-.87-2.28-.87-2.28h-.05s.02 1.41-.05 2.28l-.89 11.21h-1.57l1.28-16.02zm22.34 0h5.54c2.87 0 4.95 1.87 4.95 4.83s-2.08 4.9-4.95 4.9h-3.97v6.29h-1.57zm5.33 8.32c2.14 0 3.53-1.3 3.53-3.49s-1.39-3.42-3.51-3.42h-3.78v6.91zm19.22 2.6h-6.45l-1.82 5.11h-1.66l5.88-16.02h1.69l5.88 16.02h-1.66l-1.85-5.11zm-3.24-9.26s-.34 1.32-.62 2.07l-2.14 5.81h5.52l-2.1-5.81c-.27-.75-.62-2.07-.62-2.07h-.05zm13.02-1.66h1.53l8.18 11.53c.55.8 1.32 2.17 1.32 2.17h.04s-.14-1.32-.14-2.17v-11.53h1.57v16.02h-1.53l-8.18-11.53c-.55-.8-1.32-2.17-1.32-2.17h-.05s.14 1.32.14 2.17v11.53h-1.57v-16.02zm24.23 9.14l-5.4-9.14h1.8l3.4 5.81c.48.82.98 1.91.98 1.91h.04s.48-1.07.98-1.91l3.4-5.81h1.78l-5.38 9.14v6.88h-1.6z" fill="#fff" stroke-width="0"/></symbol><symbol viewBox="0 0 20.005 45" id="emakina-logo-small"><path id="emakina-logo-small_Union_1" data-name="Union 1" d="M103.483-86.514v-20.461h4v20.461zm-8 0v-20.461h4v20.461zm-8 0v-20.461h4v20.461zm0-24.537v-4.093h20.005v4.093zm0-8.185v-4.093h20.005v4.093zm0-8.186v-4.093h20.005v4.093z" transform="translate(-87.48 131.514)"/></symbol><symbol viewBox="0 0 7.554 17.003" id="facebook"><path fill-rule="evenodd" d="M7.537.005v2.763s-1.911-.2-2.388.577a8.339 8.339 0 00-.13 2.57h2.534c-.214 1.047-.367 1.756-.525 2.665H5.005v8.424H1.494V8.613H0v-2.7h1.473c.075-1.974.1-3.928 1.024-4.923C3.534-.132 4.521.005 7.537.005z" data-name="Path 703"/></symbol><symbol viewBox="0 0 9 12.5" id="filter"><g id="filter_Group_28654" data-name="Group 28654" transform="translate(-123 -786.5)"><path id="filter_Rectangle_27719" data-name="Rectangle 27719" transform="rotate(90 -330.5 459.5)" fill="#fff" d="M0 0h9v3H0z"/><g id="filter_Group_28653" data-name="Group 28653" transform="rotate(90 750.75 576.25)"><g id="filter_Group_73" data-name="Group 73" transform="translate(-6)"><path id="filter_Polygon_1" data-name="Polygon 1" d="M4.5 0L9 8H0z" transform="rotate(90 -110 1085)" fill="#fff"/></g></g></g></symbol><symbol viewBox="0 0 16.18 15.161" id="linkedin"><g id="linkedin_Group_26829" data-name="Group 26829" transform="translate(.891 -31.265)"><path id="linkedin_Path_526" data-name="Path 526" d="M12.055 46.414v-6.127a1.816 1.816 0 00-1.767-1.639 1.925 1.925 0 00-1.874 1.558v6.207H5.148L5.2 36.294h3.16l-.026 1.272a3.174 3.174 0 013.141-1.666c2.481 0 3.605 1.426 3.814 4.092v6.418zM1.142 34.856a1.809 1.809 0 110-3.591 1.809 1.809 0 110 3.591zm2.016 11.57H-.857V36.32l4.015-.026z"/></g></symbol><symbol viewBox="0 0 19.456 19.456" id="linkedin-square"><path data-name="Icon awesome-linkedin" d="M18.066 0H1.385A1.4 1.4 0 000 1.403V18.05a1.4 1.4 0 001.385 1.4h16.681a1.4 1.4 0 001.39-1.4V1.403A1.4 1.4 0 0018.066 0zM5.88 16.676H3V7.391h2.885v9.285zM4.438 6.123A1.672 1.672 0 116.11 4.45a1.673 1.673 0 01-1.672 1.673zm12.251 10.553h-2.883V12.16c0-1.077-.022-2.462-1.5-2.462-1.5 0-1.733 1.173-1.733 2.384v4.595H7.691V7.391h2.766V8.66h.043a3.037 3.037 0 012.732-1.5c2.918 0 3.461 1.924 3.461 4.425z"/></symbol><symbol viewBox="0 0 79.6 82.7" id="magnifier-simple"><path d="M79.6 75.3L63.3 60.2c5.7-6.4 9.1-14.8 9.1-24C72.4 16.2 56.1 0 36.2 0S0 16.2 0 36.2s16.3 36.2 36.2 36.2c7.1 0 13.8-2.1 19.4-5.7l17.2 16 6.8-7.4zM10 36.2C10 21.7 21.8 10 36.2 10c14.5 0 26.2 11.8 26.2 26.2 0 14.5-11.8 26.2-26.2 26.2C21.8 62.4 10 50.6 10 36.2z"/></symbol><symbol viewBox="0 0 7.265 9.358" id="pin"><path id="pin_Path_10274" data-name="Path 10274" d="M15.61 8.349a.465.465 0 01-.2-.181c-.776-1.1-1.557-2.192-2.328-3.293a2.945 2.945 0 01-.516-1.428A3.093 3.093 0 0114.381.3 3.02 3.02 0 0117.7.762a2.967 2.967 0 011.08 2 3.063 3.063 0 01-.571 2.2L15.955 8.14a.489.489 0 01-.213.2z" transform="translate(-12.041 .509)" stroke-width="1"/></symbol><symbol viewBox="0 0 7.265 9.358" id="pin-transparent"><path d="M3.569 8.858a.465.465 0 01-.2-.181c-.776-1.1-1.557-2.192-2.328-3.293a2.945 2.945 0 01-.516-1.428A3.093 3.093 0 012.34.809a3.02 3.02 0 013.319.462 2.967 2.967 0 011.08 2 3.063 3.063 0 01-.571 2.2L3.914 8.649a.489.489 0 01-.213.2z" data-name="Path 10264"/></symbol><symbol viewBox="0 0 12.7 16.7" id="play"><path class="st0" d="M12.7 8.4L0 16.7V0l12.7 8.4z"/></symbol><symbol viewBox="0 0 30 30" id="sound-off"><path fill="#fff" d="M23.44 22.87V8.55L11 7v10.71a3.39 3.39 0 00-.64-.06 3.13 3.13 0 103.12 3.25v-7.35l7.52.94v5.22a3.39 3.39 0 00-.64-.07 3.13 3.13 0 103.12 3.26zm-10-11.82V9.8l7.52.94V12z"/><path fill="#f47e46" d="M15.39 5.87l-1.77-1.76-2.65 2.65-2.65-2.65-1.77 1.76L9.2 8.53l-2.65 2.65 1.77 1.76 2.65-2.65 2.65 2.65 1.77-1.76-2.65-2.65 2.65-2.66z"/></symbol><symbol viewBox="0 0 30 30" id="sound-on"><path fill="#fff" d="M23.12 20.72V6.4L10.64 4.84v10.73a3.39 3.39 0 00-.64-.07 3.13 3.13 0 103.11 3.25v-7.34l7.52.94v5.22a2.73 2.73 0 00-.63-.07 3.13 3.13 0 103.11 3.25zm-10-11.82V7.66l7.52.94v1.24z"/></symbol><symbol viewBox="0 0 18.655 15.16" id="twitter"><path id="twitter_Path_527" data-name="Path 527" d="M22.229 12.121a7.615 7.615 0 01-2.2.6 3.834 3.834 0 001.683-2.118 7.661 7.661 0 01-2.43.929 3.831 3.831 0 00-6.521 3.491 10.867 10.867 0 01-7.889-4 3.832 3.832 0 001.185 5.11 3.816 3.816 0 01-1.734-.479v.048a3.83 3.83 0 003.07 3.753 3.848 3.848 0 01-1.008.134 3.792 3.792 0 01-.72-.069 3.831 3.831 0 003.575 2.662 7.723 7.723 0 01-5.666 1.585A10.885 10.885 0 0020.33 14.6q0-.249-.011-.5a7.752 7.752 0 001.91-1.979z" transform="translate(-3.574 -10.326)"/></symbol><style>.sprite-symbol-usage{display:none}.sprite-symbol-usage:target{display:inline}</style></defs><use id="arrow-usage" xlink:href="#arrow" class="sprite-symbol-usage"/><use id="arrow-thick-usage" xlink:href="#arrow-thick" class="sprite-symbol-usage"/><use id="arrow-triangle-usage" xlink:href="#arrow-triangle" class="sprite-symbol-usage"/><use id="carret-sharp-usage" xlink:href="#carret-sharp" class="sprite-symbol-usage"/><use id="email-usage" xlink:href="#email" class="sprite-symbol-usage"/><use id="emakina-logo-usage" xlink:href="#emakina-logo" class="sprite-symbol-usage"/><use id="emakina-logo-small-usage" xlink:href="#emakina-logo-small" class="sprite-symbol-usage"/><use id="facebook-usage" xlink:href="#facebook" class="sprite-symbol-usage"/><use id="filter-usage" xlink:href="#filter" class="sprite-symbol-usage"/><use id="linkedin-usage" xlink:href="#linkedin" class="sprite-symbol-usage"/><use id="linkedin-square-usage" xlink:href="#linkedin-square" class="sprite-symbol-usage"/><use id="magnifier-simple-usage" xlink:href="#magnifier-simple" class="sprite-symbol-usage"/><use id="pin-usage" xlink:href="#pin" class="sprite-symbol-usage"/><use id="pin-transparent-usage" xlink:href="#pin-transparent" class="sprite-symbol-usage"/><use id="play-usage" xlink:href="#play" class="sprite-symbol-usage"/><use id="sound-off-usage" xlink:href="#sound-off" class="sprite-symbol-usage"/><use id="sound-on-usage" xlink:href="#sound-on" class="sprite-symbol-usage"/><use id="twitter-usage" xlink:href="#twitter" class="sprite-symbol-usage"/></svg>